<svg width="421" height="283" viewBox="0 0 421 283" fill="none" xmlns="http://www.w3.org/2000/svg">
<g filter="url(#filter0_d_37_3)">
<path d="M296.341 233V216.2H302.629C304.053 216.2 305.277 216.432 306.301 216.896C307.325 217.344 308.109 218 308.653 218.864C309.213 219.712 309.493 220.744 309.493 221.96C309.493 223.144 309.213 224.168 308.653 225.032C308.109 225.88 307.325 226.536 306.301 227C305.277 227.448 304.053 227.672 302.629 227.672H297.325L298.117 226.856V233H296.341ZM307.813 233L303.493 226.904H305.413L309.757 233H307.813ZM298.117 227L297.325 226.16H302.581C304.261 226.16 305.533 225.792 306.397 225.056C307.277 224.32 307.717 223.288 307.717 221.96C307.717 220.616 307.277 219.576 306.397 218.84C305.533 218.104 304.261 217.736 302.581 217.736H297.325L298.117 216.896V227ZM321.029 233.144C319.765 233.144 318.589 232.936 317.501 232.52C316.429 232.088 315.493 231.488 314.693 230.72C313.909 229.936 313.293 229.032 312.845 228.008C312.413 226.968 312.197 225.832 312.197 224.6C312.197 223.368 312.413 222.24 312.845 221.216C313.293 220.176 313.909 219.272 314.693 218.504C315.493 217.72 316.429 217.12 317.501 216.704C318.573 216.272 319.749 216.056 321.029 216.056C322.293 216.056 323.461 216.272 324.533 216.704C325.605 217.12 326.533 217.712 327.317 218.48C328.117 219.248 328.733 220.152 329.165 221.192C329.613 222.232 329.837 223.368 329.837 224.6C329.837 225.832 329.613 226.968 329.165 228.008C328.733 229.048 328.117 229.952 327.317 230.72C326.533 231.488 325.605 232.088 324.533 232.52C323.461 232.936 322.293 233.144 321.029 233.144ZM321.029 231.56C322.037 231.56 322.965 231.392 323.813 231.056C324.677 230.704 325.421 230.216 326.045 229.592C326.685 228.952 327.181 228.216 327.533 227.384C327.885 226.536 328.061 225.608 328.061 224.6C328.061 223.592 327.885 222.672 327.533 221.84C327.181 220.992 326.685 220.256 326.045 219.632C325.421 218.992 324.677 218.504 323.813 218.168C322.965 217.816 322.037 217.64 321.029 217.64C320.021 217.64 319.085 217.816 318.221 218.168C317.357 218.504 316.605 218.992 315.965 219.632C315.341 220.256 314.845 220.992 314.477 221.84C314.125 222.672 313.949 223.592 313.949 224.6C313.949 225.592 314.125 226.512 314.477 227.36C314.845 228.208 315.341 228.952 315.965 229.592C316.605 230.216 317.357 230.704 318.221 231.056C319.085 231.392 320.021 231.56 321.029 231.56ZM341.114 233.144C339.85 233.144 338.682 232.936 337.61 232.52C336.538 232.088 335.61 231.488 334.826 230.72C334.042 229.952 333.426 229.048 332.978 228.008C332.546 226.968 332.33 225.832 332.33 224.6C332.33 223.368 332.546 222.232 332.978 221.192C333.426 220.152 334.042 219.248 334.826 218.48C335.626 217.712 336.562 217.12 337.634 216.704C338.706 216.272 339.874 216.056 341.138 216.056C342.354 216.056 343.498 216.264 344.57 216.68C345.642 217.08 346.546 217.688 347.282 218.504L346.154 219.632C345.466 218.928 344.706 218.424 343.874 218.12C343.042 217.8 342.146 217.64 341.186 217.64C340.178 217.64 339.242 217.816 338.378 218.168C337.514 218.504 336.762 218.992 336.122 219.632C335.482 220.256 334.978 220.992 334.61 221.84C334.258 222.672 334.082 223.592 334.082 224.6C334.082 225.608 334.258 226.536 334.61 227.384C334.978 228.216 335.482 228.952 336.122 229.592C336.762 230.216 337.514 230.704 338.378 231.056C339.242 231.392 340.178 231.56 341.186 231.56C342.146 231.56 343.042 231.4 343.874 231.08C344.706 230.76 345.466 230.248 346.154 229.544L347.282 230.672C346.546 231.488 345.642 232.104 344.57 232.52C343.498 232.936 342.346 233.144 341.114 233.144ZM352.604 228.824L352.532 226.664L362.708 216.2H364.748L357.332 223.976L356.324 225.056L352.604 228.824ZM351.068 233V216.2H352.844V233H351.068ZM363.14 233L355.892 224.648L357.092 223.352L365.252 233H363.14Z" fill="#EFD6AC"/>
<path d="M50.3493 209V192.2H56.6373C58.0613 192.2 59.2853 192.432 60.3093 192.896C61.3333 193.344 62.1173 194 62.6613 194.864C63.2213 195.712 63.5013 196.744 63.5013 197.96C63.5013 199.144 63.2213 200.168 62.6613 201.032C62.1173 201.88 61.3333 202.536 60.3093 203C59.2853 203.448 58.0613 203.672 56.6373 203.672H51.3333L52.1253 202.856V209H50.3493ZM61.8213 209L57.5013 202.904H59.4213L63.7653 209H61.8213ZM52.1253 203L51.3333 202.16H56.5893C58.2693 202.16 59.5413 201.792 60.4053 201.056C61.2853 200.32 61.7253 199.288 61.7253 197.96C61.7253 196.616 61.2853 195.576 60.4053 194.84C59.5413 194.104 58.2693 193.736 56.5893 193.736H51.3333L52.1253 192.896V203ZM65.005 209L72.685 192.2H74.437L82.117 209H80.245L73.189 193.232H73.909L66.853 209H65.005ZM68.029 204.512L68.557 203.072H78.325L78.853 204.512H68.029ZM84.8962 209V192.2H91.1842C92.6082 192.2 93.8322 192.432 94.8562 192.896C95.8802 193.344 96.6642 194 97.2082 194.864C97.7682 195.712 98.0482 196.744 98.0482 197.96C98.0482 199.144 97.7682 200.168 97.2082 201.032C96.6642 201.88 95.8802 202.536 94.8562 203C93.8322 203.464 92.6082 203.696 91.1842 203.696H85.8802L86.6722 202.856V209H84.8962ZM86.6722 203L85.8802 202.136H91.1362C92.8162 202.136 94.0882 201.776 94.9522 201.056C95.8322 200.32 96.2722 199.288 96.2722 197.96C96.2722 196.616 95.8322 195.576 94.9522 194.84C94.0882 194.104 92.8162 193.736 91.1362 193.736H85.8802L86.6722 192.896V203Z" fill="#EFD6AC"/>
<path d="M109.443 22.9999V6.19994H115.731C117.155 6.19994 118.379 6.43194 119.403 6.89594C120.427 7.34394 121.211 7.99994 121.755 8.86394C122.315 9.71194 122.595 10.7439 122.595 11.9599C122.595 13.1439 122.315 14.1679 121.755 15.0319C121.211 15.8799 120.427 16.5359 119.403 16.9999C118.379 17.4639 117.155 17.6959 115.731 17.6959H110.427L111.219 16.8559V22.9999H109.443ZM111.219 16.9999L110.427 16.1359H115.683C117.363 16.1359 118.635 15.7759 119.499 15.0559C120.379 14.3199 120.819 13.2879 120.819 11.9599C120.819 10.6159 120.379 9.57594 119.499 8.83994C118.635 8.10394 117.363 7.73594 115.683 7.73594H110.427L111.219 6.89594V16.9999ZM134.014 23.1439C132.75 23.1439 131.574 22.9359 130.486 22.5199C129.414 22.0879 128.478 21.4879 127.678 20.7199C126.894 19.9359 126.278 19.0319 125.83 18.0079C125.398 16.9679 125.182 15.8319 125.182 14.5999C125.182 13.3679 125.398 12.2399 125.83 11.2159C126.278 10.1759 126.894 9.27194 127.678 8.50394C128.478 7.71994 129.414 7.11994 130.486 6.70394C131.558 6.27194 132.734 6.05594 134.014 6.05594C135.278 6.05594 136.446 6.27194 137.518 6.70394C138.59 7.11994 139.518 7.71194 140.302 8.47994C141.102 9.24794 141.718 10.1519 142.15 11.1919C142.598 12.2319 142.822 13.3679 142.822 14.5999C142.822 15.8319 142.598 16.9679 142.15 18.0079C141.718 19.0479 141.102 19.9519 140.302 20.7199C139.518 21.4879 138.59 22.0879 137.518 22.5199C136.446 22.9359 135.278 23.1439 134.014 23.1439ZM134.014 21.5599C135.022 21.5599 135.95 21.3919 136.798 21.0559C137.662 20.7039 138.406 20.2159 139.03 19.5919C139.67 18.9519 140.166 18.2159 140.518 17.3839C140.87 16.5359 141.046 15.6079 141.046 14.5999C141.046 13.5919 140.87 12.6719 140.518 11.8399C140.166 10.9919 139.67 10.2559 139.03 9.63194C138.406 8.99194 137.662 8.50394 136.798 8.16794C135.95 7.81594 135.022 7.63994 134.014 7.63994C133.006 7.63994 132.07 7.81594 131.206 8.16794C130.342 8.50394 129.59 8.99194 128.95 9.63194C128.326 10.2559 127.83 10.9919 127.462 11.8399C127.11 12.6719 126.934 13.5919 126.934 14.5999C126.934 15.5919 127.11 16.5119 127.462 17.3599C127.83 18.2079 128.326 18.9519 128.95 19.5919C129.59 20.2159 130.342 20.7039 131.206 21.0559C132.07 21.3919 133.006 21.5599 134.014 21.5599ZM146.802 22.9999V6.19994H153.09C154.514 6.19994 155.738 6.43194 156.762 6.89594C157.786 7.34394 158.57 7.99994 159.114 8.86394C159.674 9.71194 159.954 10.7439 159.954 11.9599C159.954 13.1439 159.674 14.1679 159.114 15.0319C158.57 15.8799 157.786 16.5359 156.762 16.9999C155.738 17.4639 154.514 17.6959 153.09 17.6959H147.786L148.578 16.8559V22.9999H146.802ZM148.578 16.9999L147.786 16.1359H153.042C154.722 16.1359 155.994 15.7759 156.858 15.0559C157.738 14.3199 158.178 13.2879 158.178 11.9599C158.178 10.6159 157.738 9.57594 156.858 8.83994C155.994 8.10394 154.722 7.73594 153.042 7.73594H147.786L148.578 6.89594V16.9999Z" fill="#EFD6AC"/>
<path d="M284.111 45.9999V29.1999H285.575L293.255 42.3039H292.487L300.095 29.1999H301.559V45.9999H299.855V31.8639H300.263L293.255 43.8639H292.415L285.359 31.8639H285.815V45.9999H284.111ZM308.617 36.7119H317.497V38.2239H308.617V36.7119ZM308.809 44.4639H318.913V45.9999H307.033V29.1999H318.553V30.7359H308.809V44.4639ZM326.352 45.9999V30.7359H320.448V29.1999H334.032V30.7359H328.128V45.9999H326.352ZM333.337 45.9999L341.017 29.1999H342.769L350.449 45.9999H348.577L341.521 30.2319H342.241L335.185 45.9999H333.337ZM336.361 41.5119L336.889 40.0719H346.657L347.185 41.5119H336.361ZM353.228 45.9999V29.1999H355.004V44.4639H364.412V45.9999H353.228Z" fill="#EFD6AC"/>
<path d="M323.38 123L331.06 106.2H332.812L340.492 123H338.62L331.564 107.232H332.284L325.228 123H323.38ZM326.404 118.512L326.932 117.072H336.7L337.228 118.512H326.404ZM343.271 123V106.2H349.559C350.983 106.2 352.207 106.432 353.231 106.896C354.255 107.344 355.039 108 355.583 108.864C356.143 109.712 356.423 110.744 356.423 111.96C356.423 113.144 356.143 114.168 355.583 115.032C355.039 115.88 354.255 116.536 353.231 117C352.207 117.448 350.983 117.672 349.559 117.672H344.255L345.047 116.856V123H343.271ZM354.743 123L350.423 116.904H352.343L356.687 123H354.743ZM345.047 117L344.255 116.16H349.511C351.191 116.16 352.463 115.792 353.327 115.056C354.207 114.32 354.647 113.288 354.647 111.96C354.647 110.616 354.207 109.576 353.327 108.84C352.463 108.104 351.191 107.736 349.511 107.736H344.255L345.047 106.896V117ZM357.927 123L365.607 106.2H367.359L375.039 123H373.167L366.111 107.232H366.831L359.775 123H357.927ZM360.951 118.512L361.479 117.072H371.247L371.775 118.512H360.951ZM377.818 123V106.2H385.066C386.938 106.2 388.386 106.576 389.41 107.328C390.45 108.08 390.97 109.144 390.97 110.52C390.97 111.432 390.754 112.2 390.322 112.824C389.906 113.448 389.33 113.92 388.594 114.24C387.874 114.56 387.082 114.72 386.218 114.72L386.626 114.144C387.698 114.144 388.618 114.312 389.386 114.648C390.17 114.968 390.778 115.456 391.21 116.112C391.642 116.752 391.858 117.552 391.858 118.512C391.858 119.936 391.33 121.04 390.274 121.824C389.234 122.608 387.658 123 385.546 123H377.818ZM379.594 121.536H385.522C386.994 121.536 388.122 121.288 388.906 120.792C389.69 120.28 390.082 119.472 390.082 118.368C390.082 117.28 389.69 116.488 388.906 115.992C388.122 115.48 386.994 115.224 385.522 115.224H379.402V113.76H384.946C386.29 113.76 387.33 113.504 388.066 112.992C388.818 112.48 389.194 111.72 389.194 110.712C389.194 109.688 388.818 108.928 388.066 108.432C387.33 107.92 386.29 107.664 384.946 107.664H379.594V121.536ZM395.912 123V106.2H397.688V123H395.912ZM410.45 123.144C409.186 123.144 408.018 122.936 406.946 122.52C405.874 122.088 404.946 121.488 404.162 120.72C403.378 119.952 402.762 119.048 402.314 118.008C401.882 116.968 401.666 115.832 401.666 114.6C401.666 113.368 401.882 112.232 402.314 111.192C402.762 110.152 403.378 109.248 404.162 108.48C404.962 107.712 405.898 107.12 406.97 106.704C408.042 106.272 409.21 106.056 410.474 106.056C411.69 106.056 412.834 106.264 413.906 106.68C414.978 107.08 415.882 107.688 416.618 108.504L415.49 109.632C414.802 108.928 414.042 108.424 413.21 108.12C412.378 107.8 411.482 107.64 410.522 107.64C409.514 107.64 408.578 107.816 407.714 108.168C406.85 108.504 406.098 108.992 405.458 109.632C404.818 110.256 404.314 110.992 403.946 111.84C403.594 112.672 403.418 113.592 403.418 114.6C403.418 115.608 403.594 116.536 403.946 117.384C404.314 118.216 404.818 118.952 405.458 119.592C406.098 120.216 406.85 120.704 407.714 121.056C408.578 121.392 409.514 121.56 410.522 121.56C411.482 121.56 412.378 121.4 413.21 121.08C414.042 120.76 414.802 120.248 415.49 119.544L416.618 120.672C415.882 121.488 414.978 122.104 413.906 122.52C412.834 122.936 411.682 123.144 410.45 123.144Z" fill="#EFD6AC"/>
</g>
<g filter="url(#filter1_d_37_3)">
<path d="M303.072 152.232C301.541 169.615 295.488 186.294 285.514 200.613C275.541 214.932 261.994 226.392 246.22 233.854C230.446 241.316 212.994 244.52 195.598 243.148C178.202 241.777 161.468 235.877 147.058 226.036L163.978 201.262C174.065 208.151 185.779 212.281 197.956 213.241C210.133 214.201 222.35 211.958 233.391 206.735C244.433 201.511 253.916 193.49 260.897 183.466C267.879 173.443 272.116 161.768 273.188 149.6L303.072 152.232Z" fill="#D9BBF9"/>
<path d="M147.239 226.158C136.378 218.776 127.078 209.326 119.87 198.349C112.661 187.372 107.686 175.083 105.227 162.183C102.768 149.283 102.874 136.025 105.538 123.166C108.203 110.307 113.374 98.0989 120.757 87.2385L145.567 104.104C140.399 111.707 136.779 120.252 134.914 129.254C133.049 138.255 132.975 147.535 134.696 156.565C136.417 165.595 139.9 174.198 144.946 181.882C149.992 189.565 156.502 196.18 164.104 201.348L147.239 226.158Z" fill="#CCA7A2"/>
<path d="M120.711 87.3062C132.922 69.3114 150.667 55.7878 171.255 48.7847C191.844 41.7817 214.154 41.681 234.805 48.4979L225.401 76.9859C210.945 72.2141 195.328 72.2845 180.916 77.1867C166.504 82.0888 154.083 91.5553 145.535 104.152L120.711 87.3062Z" fill="#AA9FB1"/>
<path d="M234.52 48.4046C257.676 55.9715 277.272 71.7303 289.631 92.7222L263.779 107.943C255.128 93.2485 241.41 82.2174 225.202 76.9206L234.52 48.4046Z" fill="#7871AA"/>
<path d="M289.773 92.9641C300.285 110.933 304.927 131.734 303.051 152.468L273.173 149.765C274.486 135.251 271.237 120.69 263.879 108.112L289.773 92.9641Z" fill="#4E5283"/>
</g>
<circle cx="203.5" cy="142.5" r="43.5" fill="#EFD6AC"/>
<path d="M198.5 161C196.4 161 194.625 160.275 193.175 158.825C191.725 157.375 191 155.6 191 153.5C191 151.4 191.725 149.625 193.175 148.175C194.625 146.725 196.4 146 198.5 146C199.433 146 200.275 146.133 201.025 146.4C201.775 146.667 202.433 147.033 203 147.5V125H214.7V131.75H206V153.5C206 155.6 205.275 157.375 203.825 158.825C202.375 160.275 200.6 161 198.5 161Z" fill="#210B2C"/>
<defs>
<filter id="filter0_d_37_3" x="46.3493" y="6.05591" width="374.269" height="235.088" filterUnits="userSpaceOnUse" color-interpolation-filters="sRGB">
<feFlood flood-opacity="0" result="BackgroundImageFix"/>
<feColorMatrix in="SourceAlpha" type="matrix" values="0 0 0 0 0 0 0 0 0 0 0 0 0 0 0 0 0 0 127 0" result="hardAlpha"/>
<feOffset dy="4"/>
<feGaussianBlur stdDeviation="2"/>
<feComposite in2="hardAlpha" operator="out"/>
<feColorMatrix type="matrix" values="0 0 0 0 0 0 0 0 0 0 0 0 0 0 0 0 0 0 0.7 0"/>
<feBlend mode="normal" in2="BackgroundImageFix" result="effect1_dropShadow_37_3"/>
<feBlend mode="normal" in="SourceGraphic" in2="effect1_dropShadow_37_3" result="shape"/>
</filter>
<filter id="filter1_d_37_3" x="99.4579" y="43.4578" width="208" height="208" filterUnits="userSpaceOnUse" color-interpolation-filters="sRGB">
<feFlood flood-opacity="0" result="BackgroundImageFix"/>
<feColorMatrix in="SourceAlpha" type="matrix" values="0 0 0 0 0 0 0 0 0 0 0 0 0 0 0 0 0 0 127 0" result="hardAlpha"/>
<feOffset dy="4"/>
<feGaussianBlur stdDeviation="2"/>
<feComposite in2="hardAlpha" operator="out"/>
<feColorMatrix type="matrix" values="0 0 0 0 0 0 0 0 0 0 0 0 0 0 0 0 0 0 0.5 0"/>
<feBlend mode="normal" in2="BackgroundImageFix" result="effect1_dropShadow_37_3"/>
<feBlend mode="normal" in="SourceGraphic" in2="effect1_dropShadow_37_3" result="shape"/>
</filter>
</defs>
</svg>
